HIERARCHY
ROOT Hips
{
	OFFSET -32.860001 56.121803 44.745396
	CHANNELS 6 Xposition Yposition Zposition Zrotation Xrotation Yrotation
	JOINT Chest
	{
		OFFSET -0.637402 0.831600 5.390099
		CHANNELS 6 Xposition Yposition Zposition Zrotation Xrotation Yrotation
		JOINT Chest2
		{
			OFFSET 0.000000 0.000000 4.429901
			CHANNELS 6 Xposition Yposition Zposition Zrotation Xrotation Yrotation
			JOINT Neck
			{
				OFFSET 0.000000 0.000000 10.301395
				CHANNELS 6 Xposition Yposition Zposition Zrotation Xrotation Yrotation
				JOINT Head
				{
					OFFSET 0.000000 0.000000 2.173897
					CHANNELS 6 Xposition Yposition Zposition Zrotation Xrotation Yrotation
					End Site
					{
						OFFSET 0.000000 0.000000 8.298004
					}
				}
			}
			JOINT LeftCollar
			{
				OFFSET 2.142401 -0.572701 5.717800
				CHANNELS 6 Xposition Yposition Zposition Zrotation Xrotation Yrotation
				JOINT LeftShoulder
				{
					OFFSET 5.674000 0.000000 0.000000
					CHANNELS 6 Xposition Yposition Zposition Zrotation Xrotation Yrotation
					JOINT LeftElbow
					{
						OFFSET 0.000000 0.000000 -12.238701
						CHANNELS 6 Xposition Yposition Zposition Zrotation Xrotation Yrotation
						JOINT LeftWrist
						{
							OFFSET 0.000000 0.000000 -10.253700
							CHANNELS 6 Xposition Yposition Zposition Zrotation Xrotation Yrotation
							End Site
							{
								OFFSET 0.000000 0.000000 -2.173901
							}
						}
					}
				}
			}
			JOINT RightCollar
			{
				OFFSET -2.882599 -1.580101 6.695801
				CHANNELS 6 Xposition Yposition Zposition Zrotation Xrotation Yrotation
				JOINT RightShoulder
				{
					OFFSET -4.235600 0.000000 0.000000
					CHANNELS 6 Xposition Yposition Zposition Zrotation Xrotation Yrotation
					JOINT RightElbow
					{
						OFFSET 0.000000 0.000000 -10.709900
						CHANNELS 6 Xposition Yposition Zposition Zrotation Xrotation Yrotation
						JOINT RightWrist
						{
							OFFSET 0.000000 0.000000 -11.716801
							CHANNELS 6 Xposition Yposition Zposition Zrotation Xrotation Yrotation
							End Site
							{
								OFFSET 0.000000 0.000000 -2.173901
							}
						}
					}
				}
			}
		}
	}
	JOINT LeftHip
	{
		OFFSET 2.279499 0.210400 -2.475502
		CHANNELS 6 Xposition Yposition Zposition Zrotation Xrotation Yrotation
		JOINT LeftKnee
		{
			OFFSET 0.000000 -0.000004 -20.742800
			CHANNELS 6 Xposition Yposition Zposition Zrotation Xrotation Yrotation
			JOINT LeftAnkle
			{
				OFFSET 0.000000 0.000000 -16.666000
				CHANNELS 6 Xposition Yposition Zposition Zrotation Xrotation Yrotation
				End Site
				{
					OFFSET 0.000000 -8.310898 0.000000
				}
			}
		}
	}
	JOINT RightHip
	{
		OFFSET -1.961899 0.232300 -2.727402
		CHANNELS 6 Xposition Yposition Zposition Zrotation Xrotation Yrotation
		JOINT RightKnee
		{
			OFFSET 0.000000 -0.000004 -20.526800
			CHANNELS 6 Xposition Yposition Zposition Zrotation Xrotation Yrotation
			JOINT RightAnkle
			{
				OFFSET 0.000000 0.000000 -16.867300
				CHANNELS 6 Xposition Yposition Zposition Zrotation Xrotation Yrotation
				End Site
				{
					OFFSET 0.000000 -7.186401 0.000000
				}
			}
		}
	}
}
MOTION
Frames: 5
Frame Time: 0.041667
11.089706 37.537903 38.377491 1073.020861 3.875822 -3.354361 -0.637403 0.831601 5.390093 7.235872 7.295760 -4.118499 -0.000003 0.000000 4.429900 -11.788042 -2.030322 -1.238063 -0.000004 0.000003 10.301388 340.319640 14.962011 7.873251 0.000001 0.000003 2.173908 -359.851686 3.298397 -1.463321 2.142396 -0.572694 5.717800 -18.925944 1.990875 -0.724993 5.674003 -0.000003 -0.000004 116.180288 228.629873 138.303175 0.000001 0.000005 -12.238690 228.255414 -517.138921 -155.323734 -0.000002 0.000003 -10.253696 -527.102528 -13.520727 25.872488 -2.882604 -1.580093 6.695797 23.802921 16.125867 -3.297276 -4.235606 -0.000002 -0.000008 53.325701 -29.147890 36.660070 -0.000003 -0.000005 -10.709902 -36.206297 -22.030630 -27.454517 -0.000006 0.000000 -11.716800 -324.932152 5.289130 1.214810 2.279490 0.210402 -2.475504 467.496287 -40.380734 43.885731 -0.000004 -0.000001 -20.742798 -171.983029 -15.666149 74.335715 -0.000005 -0.000002 -16.665998 87.415759 11.999100 52.786943 -1.961898 0.232294 -2.727396 -487.207229 -34.797587 -59.788498 0.000003 -0.000009 -20.526802 619.618424 114.727657 -186.044422 0.000002 0.000002 -16.867308 -351.001181 37.001696 1.826242
11.012512 37.580997 37.526794 1072.131516 4.199506 -3.356655 -0.637406 0.831596 5.390098 8.189276 7.113112 -4.669207 0.000001 0.000004 4.429904 -12.713377 -2.084629 -1.310695 -0.000007 -0.000001 10.301389 337.590706 15.615710 8.260132 -0.000004 0.000004 2.173892 -360.029626 3.417254 -1.813008 2.142397 -0.572697 5.717794 -19.322286 2.189006 -0.513377 5.674004 0.000010 0.000004 114.874493 228.963801 137.026121 -0.000002 0.000003 -12.238696 234.960365 -517.635722 -149.817413 0.000004 -0.000004 -10.253698 -530.285833 -11.788380 27.738419 -2.882602 -1.580095 6.695787 24.242134 16.240617 -4.215309 -4.235601 0.000004 -0.000002 55.282554 -29.522239 37.596763 -0.000002 -0.000001 -10.709896 -36.632511 -22.348739 -27.864552 -0.000003 0.000004 -11.716803 -326.372776 6.414534 3.836423 2.279494 0.210398 -2.475500 471.930227 -39.607785 47.483356 -0.000007 -0.000007 -20.742802 -175.138645 -19.354222 75.451221 -0.000005 -0.000003 -16.665998 90.512724 10.923735 53.806864 -1.961903 0.232290 -2.727407 -489.136839 -34.484109 -62.910188 0.000008 0.000000 -20.526800 633.910294 112.859614 -198.676556 -0.000005 -0.000005 -16.867304 -355.675162 34.852553 2.487498
10.946213 37.618099 36.700794 1071.304462 4.571259 -3.454482 -0.637406 0.831594 5.390099 9.072215 6.879231 -5.123109 0.000004 -0.000006 4.429899 -13.590911 -2.139693 -1.380657 0.000000 -0.000003 10.301389 335.176507 16.108421 8.749197 0.000001 0.000005 2.173896 -360.165574 3.494837 -2.175962 2.142399 -0.572694 5.717806 -19.751331 2.418050 -0.201661 5.674001 -0.000003 0.000005 113.720423 229.025382 135.659646 0.000004 0.000002 -12.238696 242.154248 -519.888373 -144.462927 0.000003 -0.000003 -10.253698 -537.458843 -11.225804 28.569850 -2.882599 -1.580100 6.695798 24.617878 16.375756 -4.964766 -4.235596 -0.000002 -0.000008 57.118010 -29.718904 38.565065 -0.000002 -0.000005 -10.709904 -37.162168 -22.735775 -28.373630 -0.000012 0.000005 -11.716802 -327.648600 7.385507 6.325404 2.279498 0.210403 -2.475506 476.043804 -38.594442 50.890694 -0.000007 -0.000006 -20.742802 -177.556518 -22.153485 76.801994 -0.000004 0.000002 -16.666000 92.633157 9.859202 54.480389 -1.961896 0.232288 -2.727402 -490.988859 -34.198723 -66.071719 0.000007 -0.000005 -20.526806 650.975385 112.693504 -214.192861 0.000001 0.000004 -16.867298 -360.531453 32.530057 2.516806
10.890614 37.648396 35.920292 1070.560900 4.993198 -3.638071 -0.637403 0.831596 5.390095 9.865636 6.591082 -5.483654 -0.000001 -0.000002 4.429894 -14.401640 -2.078415 -1.438320 -0.000002 0.000005 10.301390 333.185070 16.331396 9.196419 0.000003 -0.000006 2.173901 -360.203796 3.577516 -2.399818 2.142403 -0.572692 5.717800 -20.015051 2.451685 -0.076274 5.674001 0.000000 0.000002 112.852962 229.036938 134.606377 0.000005 -0.000004 -12.238703 250.154640 -524.386407 -139.648040 -0.000001 0.000002 -10.253699 -545.683374 -10.865161 31.146096 -2.882602 -1.580094 6.695792 24.929227 16.442497 -5.498587 -4.235597 0.000006 -0.000006 58.846287 -29.729583 39.604285 0.000005 -0.000001 -10.709900 -37.619610 -23.013201 -28.905770 -0.000011 0.000004 -11.716808 -328.816016 8.174997 8.798770 2.279493 0.210400 -2.475502 479.763088 -37.412747 54.048219 -0.000005 -0.000004 -20.742800 -179.326603 -24.240031 78.363389 -0.000004 0.000003 -16.666002 93.974271 8.984883 54.481895 -1.961904 0.232296 -2.727404 -492.790171 -33.908064 -69.238188 0.000003 0.000003 -20.526806 667.447342 114.517274 -229.379828 0.000000 -0.000003 -16.867296 -365.476510 30.178262 2.387270
10.845608 37.670700 35.205597 1069.921157 5.447933 -3.894866 -0.637398 0.831597 5.390099 10.551087 6.265446 -5.758878 0.000001 0.000008 4.429898 -15.118091 -2.099138 -1.497210 -0.000001 0.000005 10.301403 331.270650 16.420055 9.916908 0.000000 -0.000007 2.173904 -359.911600 3.645725 -2.656446 2.142398 -0.572695 5.717801 -20.232622 2.527501 0.041735 5.674007 0.000000 0.000000 112.319005 228.984715 133.794923 0.000005 0.000002 -12.238700 258.766798 -531.130263 -135.987250 -0.000002 -0.000004 -10.253697 -555.458304 -10.642257 35.035363 -2.882605 -1.580090 6.695795 25.161109 16.604842 -5.866653 -4.235600 -0.000004 -0.000011 60.419963 -29.588704 40.671960 0.000004 0.000001 -10.709908 -38.029250 -23.518793 -29.386141 -0.000010 0.000003 -11.716798 -330.228745 9.251852 11.853407 2.279493 0.210402 -2.475500 483.014859 -36.157468 56.890490 -0.000007 0.000001 -20.742805 -180.514031 -25.714851 80.078340 -0.000005 -0.000006 -16.666002 94.589835 8.214437 54.256953 -1.961892 0.232298 -2.727397 -494.552688 -33.589778 -72.348854 0.000004 -0.000006 -20.526798 680.496282 117.955823 -241.389540 -0.000001 0.000007 -16.867302 -370.093008 28.045138 1.784638
